# xmcd
#
# Track frame offsets:
# 150
# 20648
# 28853
# 39029
# 45851
# 57219
# 80070
# 92170
# 102931
# 115278
# 122367
# 131728
# 138756
# 150273
# 167543
# 173655
#
# Disc length: 2375 seconds
#
# Revision: 0
# Processed by: cddbd v1.4PL0 Copyright (c) Steve Scherf et al.
# Submitted via: Audion 3.0.2 (http://www.panic.com/audion/)
#
DISCID=bb094510
DTITLE=D Lo and the Dirty Projectors - The Glad Fact
DYEAR=1900
DGENRE=
TTITLE0=The Softer Shell
TTITLE1=My Brother Has a Birthday
TTITLE2=The Enterprising Catalyst
TTITLE3=Obscure Wisdom
TTITLE4=I Am Going To See It
TTITLE5=Like Once Heated Milk
TTITLE6=Winter Is Here
TTITLE7=Here Comes The Summer King
TTITLE8=Katydids Calling
TTITLE9=Twenty Foot Stalks
TTITLE10=Spirit-Future Medley
TTITLE11=Hildegaard vs. Beach Boys
TTITLE12=We Two Feared The Storm
TTITLE13=How Does My Mind Work?
TTITLE14=O, You Hungering Infants
TTITLE15=Morning Had Better Last
EXTD=
EXTT0=
EXTT1=
EXTT2=
EXTT3=
EXTT4=
EXTT5=
EXTT6=
EXTT7=
EXTT8=
EXTT9=
EXTT10=
EXTT11=
EXTT12=
EXTT13=
EXTT14=
EXTT15=
PLAYORDER=
